<svg height="511.999pt" viewBox="1 1 511.999 511.999" width="511.999pt" xmlns="http://www.w3.org/2000/svg"><path d="m500.546875 445.253906-58.839844-58.839844c-5.855469-5.859374-15.351562-5.859374-21.207031-.007812l-34.101562 34.066406c-2.8125 2.8125-4.394532 6.628906-4.394532 10.609375-.003906 3.976563 1.578125 7.796875 4.390625 10.609375l58.855469 58.851563c7.386719 7.386719 17.203125 11.453125 27.648438 11.453125 10.441406 0 20.261718-4.066406 27.648437-11.449219 15.246094-15.242187 15.246094-40.046875 0-55.292969zm0 0" fill="#86e66c"/><path d="m500.546875 445.253906-58.839844-58.839844c-5.855469-5.859374-15.351562-5.859374-21.207031-.007812l-17.0625 17.046875 97.101562 97.101563c.003907 0 .007813-.003907.011719-.007813 15.242188-15.242187 15.242188-40.046875-.003906-55.292969zm0 0" fill="#19bd7b"/><path d="m474.742188 256c22.480468-15.441406 37.253906-41.316406 37.253906-70.585938 0-47.195312-38.394532-85.589843-85.582032-85.589843-5.3125 0-10.546874.480469-15.660156 1.421875.9375-5.113282 1.421875-10.347656 1.421875-15.660156 0-22.859376-8.902343-44.351563-25.066406-60.519532-16.167969-16.164062-37.660156-25.066406-60.523437-25.066406-29.273438 0-55.148438 14.777344-70.585938 37.257812-15.441406-22.480468-41.320312-37.257812-70.589844-37.257812-47.1875 0-85.582031 38.394531-85.585937 85.585938 0 5.3125.480469 10.546874 1.421875 15.660156-5.113282-.941406-10.347656-1.421875-15.660156-1.421875-47.191407 0-85.585938 38.394531-85.585938 85.585937-.00390625 22.863282 8.898438 44.355469 25.066406 60.519532 3.773438 3.773437 7.847656 7.136718 12.152344 10.097656-22.457031 15.441406-37.21875 41.304687-37.21875 70.558594 0 47.1875 38.394531 85.582031 85.585938 85.585937 5.308593 0 10.546874-.480469 15.660156-1.417969-.941406 5.109375-1.421875 10.347656-1.421875 15.65625 0 47.195313 38.394531 85.589844 85.589843 85.589844 29.253907 0 55.117188-14.761719 70.558594-37.222656 2.960938 4.304687 6.320313 8.378906 10.09375 12.152344 16.167969 16.164062 37.660156 25.066406 60.519532 25.066406 47.191406 0 85.585937-38.394532 85.585937-85.582032.003906-5.3125-.476563-10.550781-1.417969-15.664062 5.109375.941406 10.351563 1.421875 15.660156 1.421875 47.191407 0 85.585938-38.394531 85.585938-85.585937-.003906-29.269532-14.777344-55.144532-37.257812-70.585938zm0 0" fill="#00ab5e"/><path d="m474.742188 256c22.480468-15.441406 37.253906-41.316406 37.253906-70.585938 0-47.195312-38.394532-85.589843-85.582032-85.589843-5.3125 0-10.546874.480469-15.660156 1.421875.9375-5.113282 1.421875-10.347656 1.421875-15.660156 0-22.859376-8.902343-44.351563-25.066406-60.519532-16.167969-16.164062-37.660156-25.066406-60.523437-25.066406-29.273438 0-55.148438 14.777344-70.585938 37.257812v437.558594c2.953125 4.289063 6.304688 8.355469 10.066406 12.113282 16.164063 16.167968 37.65625 25.066406 60.519532 25.066406 47.191406 0 85.585937-38.394532 85.585937-85.582032 0-5.3125-.480469-10.550781-1.417969-15.660156 5.109375.9375 10.347656 1.417969 15.660156 1.417969 47.191407 0 85.582032-38.394531 85.582032-85.585937 0-29.269532-14.773438-55.144532-37.253906-70.585938zm0 0" fill="#00734b"/><path d="m421.597656 241h-129.386718l91.488281-91.492188c5.859375-5.855468 5.859375-15.351562 0-21.210937-5.855469-5.855469-15.355469-5.855469-21.210938 0l-91.488281 91.492187v-129.386718c0-8.285156-6.71875-15-15-15-8.285156 0-15 6.714844-15 15v129.382812l-91.492188-91.488281c-5.855468-5.855469-15.355468-5.855469-21.210937 0-5.859375 5.859375-5.859375 15.355469 0 21.214844l91.488281 91.488281h-129.382812c-8.285156 0-15 6.71875-15 15 0 8.285156 6.714844 15 15 15h129.382812l-91.488281 91.488281c-5.855469 5.855469-5.855469 15.355469 0 21.214844 2.929687 2.925781 6.769531 4.390625 10.609375 4.390625s7.675781-1.464844 10.605469-4.390625l91.488281-91.488281v129.386718c0 8.28125 6.714844 15 15 15 8.28125 0 15-6.71875 15-15v-129.390624l91.488281 91.492187c2.929688 2.929687 6.769531 4.394531 10.605469 4.394531 3.839844 0 7.679688-1.464844 10.605469-4.394531 5.859375-5.855469 5.859375-15.355469 0-21.210937l-91.488281-91.492188h129.386718c8.285156 0 15-6.714844 15-15s-6.714844-15-15-15zm0 0" fill="#86e66c"/><path d="m421.597656 241h-129.386718l91.488281-91.492188c5.859375-5.855468 5.859375-15.351562 0-21.210937-5.855469-5.855469-15.355469-5.855469-21.210938 0l-91.488281 91.492187v-129.386718c0-8.285156-6.714844-15-15-15v361.195312c8.285156 0 15-6.714844 15-15v-129.386718l91.488281 91.492187c2.929688 2.929687 6.769531 4.394531 10.605469 4.394531 3.839844 0 7.679688-1.464844 10.605469-4.394531 5.859375-5.855469 5.859375-15.355469 0-21.210937l-91.488281-91.492188h129.386718c8.285156 0 15-6.714844 15-15s-6.714844-15-15-15zm0 0" fill="#19bd7b"/></svg>